<svg  xmlns="http://www.w3.org/2000/svg" xmlns:xlink="http://www.w3.org/1999/xlink" width="1136" height="300" viewBox="0 0 1160 324"><path transform="translate(0 100)" d="M45.1,-82.4L54.9,-82.4L54.9,-65.1L90.5,-65.1L90.5,-16.8L81,-16.8L81,-22.5L54.9,-22.5L54.9,11L45.1,11L45.1,-22.5L19.1,-22.5L19.1,-16.8L9.6,-16.8L9.6,-65.1L45.1,-65.1L45.1,-82.4ZM19.1,-31.8L45.1,-31.8L45.1,-55.8L19.1,-55.8L19.1,-31.8ZM54.9,-31.8L81,-31.8L81,-55.8L54.9,-55.8L54.9,-31.8Z"></path><path transform="translate(100 100)" d="M5.9,-65.9L46.2,-65.9Q42.4,-73 36.6,-79.5L46.1,-83Q51.6,-75.6 56.2,-65.9L94.1,-65.9L94.1,-56.5L78.8,-56.5Q71.6,-33.8 57.5,-18.3Q73.1,-5.5 96.3,2.9L91,10.9Q66.8,1.9 50.9,-11.6Q34,3.4 9.2,10.6L4.1,2.2Q28.3,-4.1 44.2,-17.7Q27.7,-34.2 21.2,-56.5L5.9,-56.5L5.9,-65.9ZM30.3,-56.5Q36.7,-37.9 50.8,-24.2Q63,-37.6 69,-56.5L30.3,-56.5Z"></path><path transform="translate(200 100)" d="M46.1,-12.8Q41.9,-19.6 38.2,-24.8Q33.1,-11.3 26.2,-1.4L20.1,-8.8Q27,-19.3 31.9,-33.7Q26.1,-41.7 18.7,-50.4L24.5,-56.1Q28.7,-51.7 34.9,-43.8Q37.3,-53.8 38.7,-63.9L47.4,-62.4Q45.1,-46.9 41.6,-34.9Q46.7,-27.7 52.4,-19L46.1,-12.8ZM74.9,-8Q71.1,-14.8 66.3,-22.4Q60.7,-8.8 53.3,1L47.3,-6.3Q55,-17.2 60.3,-31.6Q54,-40.9 47.4,-49.3L53.3,-54.9Q58.3,-49.3 63.5,-41.9Q66.2,-52 68,-63.6L76.8,-62.1Q74.1,-45.8 69.9,-32.4Q75.7,-23.5 81.3,-14.3L74.9,-8ZM80.8,9.7L70.8,9.7L68.3,0.5L77.7,0.9Q81.4,0.9 81.4,-2.6L81.4,-69.4L18.6,-69.4L18.6,10.3L9.2,10.3L9.2,-78.5L90.8,-78.5L90.8,-0.5Q90.8,9.7 80.8,9.7Z"></path><path transform="translate(300 100)" d="M93,-72.3L93,-48.9L83.4,-48.9L83.4,-63.3L16.6,-63.3L16.6,-48.9L7,-48.9L7,-72.3L45.2,-72.3Q42.7,-77.9 40.8,-81.2L51.7,-83Q54.1,-77.5 55.8,-72.3L93,-72.3ZM22.7,-54.4L77.1,-54.4L77.1,-45.6Q67.1,-38.6 56,-32.5L56,-27.6L94.6,-27.6L94.6,-18.4L56,-18.4L56,0.4Q56,9.9 46.1,9.9L33.8,9.9L31.5,1.3Q38.5,1.5 42.9,1.5Q46.5,1.5 46.5,-2.9L46.5,-18.4L5.5,-18.4L5.5,-27.6L46.5,-27.6L46.5,-36.4Q56.3,-41.6 63,-45.6L22.7,-45.6L22.7,-54.4Z"></path><path transform="translate(400 100)" d="M35.5,-52.8L61.7,-52.8L61.7,-82.1L71.5,-82.1L71.5,-52.8L96.3,-52.8L96.3,-43.4L71.5,-43.4L71.5,10.5L61.7,10.5L61.7,-43.4L35.5,-43.4L35.5,-52.8ZM17.3,-81.2Q27.2,-73.7 33.8,-66.4L27.3,-59.8Q21.1,-67.1 10.7,-74.7L17.3,-81.2ZM4.1,-52.2L27.2,-52.2L27.2,-9.6Q31.3,-12.9 37.2,-18.5L39.7,-8.8Q30,0.3 19.1,7.3L15.5,-1.2Q18.1,-3.3 18.1,-6.3L18.1,-43.1L4.1,-43.1L4.1,-52.2Z"></path><path transform="translate(500 100)" d="M63.2,-73.3L72.4,-73.3L72.4,-11.5L63.2,-11.5L63.2,-73.3ZM82.2,9.4L67.8,9.4L65.6,0.3Q72.6,0.9 78.9,0.9Q83.2,0.9 83.2,-3.2L83.2,-81.7L92.6,-81.7L92.6,-0.8Q92.6,9.4 82.2,9.4ZM54.4,-60.5L55.9,-51.3L27.7,-47Q28.3,-40.2 29.5,-34.7Q30.9,-28 32.1,-24.3Q40,-33.7 45.5,-45.9L53.8,-41.6Q46.2,-24.9 35.7,-13.8Q36.8,-11.1 37.9,-9.2Q43,-0.6 47.3,-0.4Q49.6,-0.8 52.2,-14.8L60.2,-9.6Q57.9,-1.7 55.3,3.3Q51.9,9.7 47.8,9.7Q40.7,9.7 33.6,-0Q31,-3.4 29.1,-7.5Q20.1,-0 9.3,4.5L3.6,-4Q15.9,-8.9 25.1,-17.1Q22.9,-23.2 21.6,-28.4Q19.7,-35.6 18.5,-45.6L6.3,-43.7L4.9,-52.9L17.5,-54.9Q16.4,-67.5 16.4,-81.8L26,-81.8Q26,-66.4 26.8,-56.3L54.4,-60.5ZM39.3,-82.4Q44.9,-75.6 49.7,-67.7L41.7,-63.7Q36.8,-72.1 31.5,-78.6L39.3,-82.4Z"></path><path transform="translate(0 200)" d="M1.5,-71.4L60,-71.4L60,-62.1L36.2,-62.1L36.2,-0L25.4,-0L25.4,-62.1L1.5,-62.1L1.5,-71.4Z"></path><path transform="translate(62 200)" d="M6,-72.8L16.6,-72.8L16.6,-44.4Q19.5,-49 23.8,-51.1Q27.5,-53.1 32.6,-53.1Q41.9,-53.1 46.7,-47.6Q51.2,-42.4 51.2,-32.1L51.2,-0L40.6,-0L40.6,-30.3Q40.6,-37 37.8,-40.7Q34.8,-44.4 28.7,-44.4Q23.3,-44.4 20,-40.1Q16.6,-35.8 16.6,-29L16.6,-0L6,-0L6,-72.8Z"></path><path transform="translate(119 200)" d="M27.9,-53.1Q40.7,-53.1 47.2,-44.5Q53.3,-36.6 53.4,-22.9L14.2,-22.9Q14.8,-15.2 18.3,-11.3Q22,-7.3 28.2,-7.3Q33.7,-7.3 37.2,-9.9Q39.7,-11.8 41.9,-16.6L52.5,-16.6Q50.6,-9.2 45.4,-4.5Q38.6,1.4 28.3,1.4Q16.8,1.4 10.2,-5.7Q3,-13.2 3,-25.9Q3,-37.5 9.8,-45.2Q16.4,-53.1 27.9,-53.1ZM28.2,-44.4Q22.2,-44.4 18.7,-40.9Q15.3,-37.3 14.4,-30.9L42.3,-30.9Q40.8,-44.4 28.2,-44.4Z"></path><path transform="translate(175 200)" d=""></path><path transform="translate(261 200)" d="M7,-71.4L36.6,-71.4Q62.1,-71.4 62.1,-49.7Q62.1,-27.8 36.4,-27.8L17.9,-27.8L17.9,-0L7,-0L7,-71.4ZM17.9,-62.1L17.9,-37.1L35.7,-37.1Q43.8,-37.1 47.5,-40.1Q51.2,-43.2 51.2,-49.7Q51.2,-56.4 47.4,-59.1Q43.6,-62.1 35.7,-62.1L17.9,-62.1Z"></path><path transform="translate(326 200)" d="M30,-53.1Q34.1,-53.1 36.7,-51.8L36.7,-41.2Q33.1,-42.3 29.2,-42.3Q24.4,-42.3 20.6,-38.4Q16.6,-34.3 16.6,-27.4L16.6,-0L6,-0L6,-51.7L16.6,-51.7L16.6,-43.9Q18.5,-48 21.6,-50.2Q25.1,-53.1 30,-53.1Z"></path><path transform="translate(363 200)" d="M29.8,-53.1Q41.6,-53.1 48.6,-45.3Q55.6,-37.5 55.6,-25.8Q55.6,-14 48.7,-6.5Q41.4,1.4 29.8,1.4Q18.2,1.4 10.9,-6.5Q4,-14 4,-25.8Q4,-37.7 11,-45.3Q18,-53.1 29.8,-53.1ZM29.8,-44.4Q22.4,-44.4 18.4,-38.6Q14.9,-33.8 14.9,-25.8Q14.9,-17.9 18.4,-13.1Q22.5,-7.3 29.8,-7.3Q37,-7.3 41.3,-13.1Q44.9,-18.2 44.9,-25.8Q44.9,-33.6 41.3,-38.6Q37.1,-44.4 29.8,-44.4Z"></path><path transform="translate(423 200)" d="M13.8,-72.4Q17.1,-72.4 19.1,-70.4Q21.2,-68.4 21.2,-65.3Q21.2,-62.2 19.1,-60.1Q16.8,-58.1 13.8,-58.1Q10.9,-58.1 8.7,-60.1Q6.5,-62.2 6.5,-65.3Q6.5,-68.5 8.7,-70.4Q10.7,-72.4 13.8,-72.4ZM8.5,-51.7L19.1,-51.7L19.1,5Q19.1,19.8 3.4,19.8L-1.5,19.8L-1.5,11.1L2.5,11.1Q8.5,11.1 8.5,4.6L8.5,-51.7Z"></path><path transform="translate(450 200)" d="M27.9,-53.1Q40.7,-53.1 47.2,-44.5Q53.3,-36.6 53.4,-22.9L14.2,-22.9Q14.8,-15.2 18.3,-11.3Q22,-7.3 28.2,-7.3Q33.7,-7.3 37.2,-9.9Q39.7,-11.8 41.9,-16.6L52.5,-16.6Q50.6,-9.2 45.4,-4.5Q38.6,1.4 28.3,1.4Q16.8,1.4 10.2,-5.7Q3,-13.2 3,-25.9Q3,-37.5 9.8,-45.2Q16.4,-53.1 27.9,-53.1ZM28.2,-44.4Q22.2,-44.4 18.7,-40.9Q15.3,-37.3 14.4,-30.9L42.3,-30.9Q40.8,-44.4 28.2,-44.4Z"></path><path transform="translate(506 200)" d="M29,-53.1Q38.9,-53.1 44.9,-48.6Q51,-43.7 52.5,-34.2L42,-34.2Q40.9,-39.6 37.7,-41.9Q34.5,-44.4 29,-44.4Q22.4,-44.4 18.7,-39.5Q14.9,-34.8 14.9,-25.9Q14.9,-17.1 18.6,-12.2Q22.1,-7.3 28.9,-7.3Q40.7,-7.3 42.2,-19.1L52.7,-19.1Q50.9,-8.8 44.8,-3.6Q38.7,1.4 28.8,1.4Q17,1.4 10.4,-6.4Q4,-13.8 4,-25.8Q4,-37.5 10.3,-45Q17,-53.1 29,-53.1Z"></path><path transform="translate(562 200)" d="M21.7,-68.4L21.7,-51.7L33.5,-51.7L33.5,-42.9L21.7,-42.9L21.7,-12.9Q21.7,-10.8 22.6,-9.8Q23.6,-8.8 25.4,-8.8L32.2,-8.8L32.2,-0L23.7,-0Q17,-0 14,-3.5Q11.1,-6.7 11.1,-12.9L11.1,-42.9L1.5,-42.9L1.5,-51.7L11.1,-51.7L11.1,-64L21.7,-68.4Z"></path><path transform="translate(598 200)" d=""></path><path transform="translate(684 200)" d="M7,-71.4L55.5,-71.4L55.5,-62.1L17.9,-62.1L17.9,-41.3L53.4,-41.3L53.4,-32L17.9,-32L17.9,-0L7,-0L7,-71.4Z"></path><path transform="translate(742 200)" d="M29.8,-53.1Q41.6,-53.1 48.6,-45.3Q55.6,-37.5 55.6,-25.8Q55.6,-14 48.7,-6.5Q41.4,1.4 29.8,1.4Q18.2,1.4 10.9,-6.5Q4,-14 4,-25.8Q4,-37.7 11,-45.3Q18,-53.1 29.8,-53.1ZM29.8,-44.4Q22.4,-44.4 18.4,-38.6Q14.9,-33.8 14.9,-25.8Q14.9,-17.9 18.4,-13.1Q22.5,-7.3 29.8,-7.3Q37,-7.3 41.3,-13.1Q44.9,-18.2 44.9,-25.8Q44.9,-33.6 41.3,-38.6Q37.1,-44.4 29.8,-44.4Z"></path><path transform="translate(802 200)" d="M30,-53.1Q34.1,-53.1 36.7,-51.8L36.7,-41.2Q33.1,-42.3 29.2,-42.3Q24.4,-42.3 20.6,-38.4Q16.6,-34.3 16.6,-27.4L16.6,-0L6,-0L6,-51.7L16.6,-51.7L16.6,-43.9Q18.5,-48 21.6,-50.2Q25.1,-53.1 30,-53.1Z"></path><path transform="translate(839 200)" d=""></path><path transform="translate(925 200)" d="M0.5,-71.4L12.8,-71.4L26.7,-15.8L27.1,-15.8L41.7,-71.4L53.1,-71.4L67.7,-15.8L68.1,-15.8L82,-71.4L94.3,-71.4L73.7,-0L62.1,-0L47.6,-55.1L47.2,-55.1L32.7,-0L21,-0L0.5,-71.4Z"></path><path transform="translate(1020 200)" d="M27.9,-53.1Q40.7,-53.1 47.2,-44.5Q53.3,-36.6 53.4,-22.9L14.2,-22.9Q14.8,-15.2 18.3,-11.3Q22,-7.3 28.2,-7.3Q33.7,-7.3 37.2,-9.9Q39.7,-11.8 41.9,-16.6L52.5,-16.6Q50.6,-9.2 45.4,-4.5Q38.6,1.4 28.3,1.4Q16.8,1.4 10.2,-5.7Q3,-13.2 3,-25.9Q3,-37.5 9.8,-45.2Q16.4,-53.1 27.9,-53.1ZM28.2,-44.4Q22.2,-44.4 18.7,-40.9Q15.3,-37.3 14.4,-30.9L42.3,-30.9Q40.8,-44.4 28.2,-44.4Z"></path><path transform="translate(1076 200)" d="M6,-72.8L16.6,-72.8L16.6,-44Q22.9,-53.1 32.4,-53.1Q43.4,-53.1 49.9,-45Q55.8,-37.4 55.8,-26.1Q55.8,-14.2 49.8,-6.7Q43.2,1.4 31.9,1.4Q21.4,1.4 15.9,-6.2L15.9,-0L6,-0L6,-72.8ZM30,-44.5Q23.9,-44.5 20.4,-39.8Q16.3,-34.8 16.3,-26.3L16.3,-25.4Q16.3,-17.6 19.6,-12.7Q23.4,-7.2 30.3,-7.2Q38,-7.2 41.8,-12.8Q44.9,-17.8 44.9,-26.1Q44.9,-34.7 41.6,-39.2Q37.9,-44.5 30,-44.5Z"></path></svg>